name Walk1.mot
datacolumns 19
datarows 12
range 1.61500000 1.67000000
endheader

                time	   L_ground_force_vx	   L_ground_force_vy	   L_ground_force_vz	   L_ground_force_px	   L_ground_force_py	   L_ground_force_pz	   R_ground_force_vx	   R_ground_force_vy	   R_ground_force_vz	   R_ground_force_px	   R_ground_force_py	   R_ground_force_pz	   L_ground_torque_x	   L_ground_torque_y	   L_ground_torque_z	   R_ground_torque_x	   R_ground_torque_y	   R_ground_torque_z	
          1.61500000	          0.10115244	          0.21752101	         -0.01115299	         -0.00004437	          0.00000000	         -0.00000769	        -28.75047693	        715.00830447	        -49.72826098	          0.40241517	          0.00000000	          0.08073225	          0.00000000	          0.00026360	          0.00000000	          0.00000000	          4.28989336	          0.00000000	
          1.62000000	          0.08757195	          0.19321412	         -0.01285085	         -0.00012354	          0.00000000	         -0.00002658	        -27.52293997	        707.62722462	        -48.73344238	          0.40502051	          0.00000000	          0.08069520	          0.00000000	          0.00008210	          0.00000000	          0.00000000	          3.97581500	          0.00000000	
          1.62500000	          0.07193716	          0.16234568	         -0.01292330	         -0.00016455	          0.00000000	         -0.00003659	        -26.38710029	        700.80680905	        -47.69232812	          0.40761291	          0.00000000	          0.08065718	          0.00000000	         -0.00004079	          0.00000000	          0.00000000	          3.68664487	          0.00000000	
          1.63000000	          0.05622152	          0.12971076	         -0.01194769	         -0.00017783	          0.00000000	         -0.00004012	        -25.33818875	        694.62500436	        -46.63472400	          0.41018689	          0.00000000	          0.08061876	          0.00000000	         -0.00011638	          0.00000000	          0.00000000	          3.42268552	          0.00000000	
          1.63500000	          0.04169694	          0.09852407	         -0.01037713	         -0.00017228	          0.00000000	         -0.00003921	        -24.37019100	        689.14324608	        -45.59512351	          0.41273762	          0.00000000	          0.08057997	          0.00000000	         -0.00015564	          0.00000000	          0.00000000	          3.18381920	          0.00000000	
          1.64000000	          0.02908488	          0.07073259	         -0.00854926	         -0.00015510	          0.00000000	         -0.00003552	        -23.47711264	        684.40652071	        -44.60979839	          0.41526007	          0.00000000	          0.08054060	          0.00000000	         -0.00016851	          0.00000000	          0.00000000	          2.96941585	          0.00000000	
          1.64500000	          0.01869675	          0.04731636	         -0.00670093	         -0.00013181	          0.00000000	         -0.00003035	        -22.65195852	        680.44150260	        -43.71387854	          0.41775158	          0.00000000	          0.08050028	          0.00000000	         -0.00016344	          0.00000000	          0.00000000	          2.77806586	          0.00000000	
          1.65000000	          0.01055636	          0.02855783	         -0.00498568	         -0.00010645	          0.00000000	         -0.00002463	        -21.88683801	        677.25678945	        -42.93655270	          0.42021271	          0.00000000	          0.08045930	          0.00000000	         -0.00014726	          0.00000000	          0.00000000	          2.60760035	          0.00000000	
          1.65500000	          0.00450120	          0.01426977	         -0.00349141	         -0.00008177	          0.00000000	         -0.00001902	        -21.17210078	        674.84313389	        -42.29711069	          0.42264568	          0.00000000	          0.08041726	          0.00000000	         -0.00012524	          0.00000000	          0.00000000	          2.45531448	          0.00000000	
          1.66000000	          0.00026215	          0.00397855	         -0.00225704	         -0.00005948	          0.00000000	         -0.00001391	        -20.49638184	        673.17547659	        -41.80343556	          0.42505145	          0.00000000	          0.08037285	          0.00000000	         -0.00010121	          0.00000000	          0.00000000	          2.31848389	          0.00000000	
          1.66500000	         -0.00247700	         -0.00293567	         -0.00128695	         -0.00004048	          0.00000000	         -0.00000954	        -19.84787174	        672.21354724	        -41.45198117	          0.42743067	          0.00000000	          0.08032432	          0.00000000	         -0.00007780	          0.00000000	          0.00000000	          2.19421662	          0.00000000	
          1.67000000	         -0.00403766	         -0.00713745	         -0.00056307	         -0.00002509	          0.00000000	         -0.00000598	        -19.21509450	        671.90406700	        -41.23016185	          0.42978619	          0.00000000	          0.08026954	          0.00000000	         -0.00005663	          0.00000000	          0.00000000	          2.07970797	          0.00000000	
